<svg width="28" height="29" viewBox="0 0 28 29" fill="none" xmlns="http://www.w3.org/2000/svg">
    <path d="M5.89918 21.3214C5.93082 16.6276 6.00433 14.2511 7.01684 8.65195C7.21795 7.81482 7.68983 7.02793 8.46637 6.66192C9.36445 6.23862 11.466 6.00037 13.8887 6.00037C16.3114 6.00037 18.4129 6.23862 19.311 6.66192C20.0875 7.02793 20.5594 7.81482 20.7605 8.65195C21.7732 14.2511 21.8466 16.6276 21.8782 21.3214M5.89918 21.3214L5.2771 21.0615C5.14534 21.0064 5 21.1032 5 21.246V22.7949C5 22.8841 5.05707 22.9618 5.14345 22.9844C5.87065 23.1745 9.30029 24.0004 14 24.0004C18.6997 24.0004 22.1293 23.1745 22.8566 22.9844C22.9429 22.9618 23 22.8841 23 22.7949V21.2236C23 21.087 22.866 20.9905 22.7365 21.0339L21.8782 21.3214M5.89918 21.3214C5.89918 21.3214 9.5 22.0004 14 22.0004C18.5 22.0004 21.8782 21.3214 21.8782 21.3214M10.4275 3.65281C10.2311 3.86063 10.11 4.14526 10.11 4.45922C10.11 5.0956 10.6075 5.61148 11.2211 5.61148C11.8348 5.61148 12.3322 5.0956 12.3322 4.45922V3.76171C12.3322 3.14702 12.9412 2.71786 13.5201 2.92461L13.5888 2.94916C13.7821 3.0182 13.9934 3.0182 14.1867 2.94916L14.2555 2.92461C14.8344 2.71786 15.4433 3.14702 15.4433 3.76171V4.45922C15.4433 5.0956 15.9408 5.61148 16.5544 5.61148C17.1681 5.61148 17.6656 5.0956 17.6656 4.45922C17.6656 4.14526 17.5445 3.86063 17.3481 3.65281M5.555 15.9418C6.49618 16.2381 9.85827 16.8307 13.9994 16.8307C18.1406 16.8307 21.5027 16.2381 22.4439 15.9418M6 11.5004C6.94118 11.7967 9.85882 12.3893 14 12.3893C18.1412 12.3893 21.0588 11.7967 22 11.5004M12.2205 24.0004L12.22 26.5004H15.7755V24.0004" stroke="black" stroke-width="1.2" stroke-linecap="round"/>
</svg>
