<svg width="28" height="29" viewBox="0 0 28 29" fill="none" xmlns="http://www.w3.org/2000/svg">
    <g clip-path="url(#clip0_1_6627)">
        <path d="M3 7.58301V25.583H25V7.58302" stroke="white" stroke-width="1.2"/>
        <path d="M1.75 3.5H26.2493V7.5H1.75V3.5Z" stroke="white" stroke-width="1.2"/>
        <path d="M20 5.16602C20.3333 5.16602 21 4.66602 21 3.16602C21 1.66602 20.3333 1.16602 20 1.16602C19.6667 1.16602 19 1.96602 19 3.16602" stroke="white" stroke-width="1.2"/>
        <path d="M14 5.16602C14.3333 5.16602 15 4.66602 15 3.16602C15 1.66602 14.3333 1.16602 14 1.16602C13.6667 1.16602 13 1.96602 13 3.16602" stroke="white" stroke-width="1.2"/>
        <path d="M8 5.16602C8.33333 5.16602 9 4.66602 9 3.16602C9 1.66602 8.33333 1.16602 8 1.16602C7.66667 1.16602 7 1.96602 7 3.16602" stroke="white" stroke-width="1.2"/>
    </g>
    <defs>
        <clipPath id="clip0_1_6627">
            <rect width="28" height="28" fill="white" transform="translate(0 0.5)"/>
        </clipPath>
    </defs>
</svg>
