<svg width="28" height="29" viewBox="0 0 28 29" fill="none" xmlns="http://www.w3.org/2000/svg">
    <path d="M21.3333 18.1667H18.8889V15.7222H15.2222V19.3889H18.8889V20.6111H17.6667V21.8333H15.2222V25.5H17.6667V23.0556H20.1111M21.3333 18.1667V20.6111H20.1111V23.0556M21.3333 18.1667H25V15.7222H21.3333V18.1667ZM20.1111 23.0556V25.5H25V20.6111H22.5556V23.0556H20.1111ZM3 3.5H12.7778V13.2778H3V3.5ZM5.44444 5.94444V10.8333H10.3333V5.94444H5.44444ZM15.2222 3.5H25V13.2778H15.2222V3.5ZM17.6667 5.94444V10.8333H22.5556V5.94444H17.6667ZM3 15.7222H12.7778V25.5H3V15.7222ZM5.44444 18.1667V23.0556H10.3333V18.1667H5.44444Z" stroke="white" stroke-width="1.2"/>
</svg>
